<svg width="925" height="400" viewBox="0 0 118 51" fill="none" xmlns="http://www.w3.org/2000/svg">
<g clip-path="url(#clip0_728_74)">
<path d="M21.8852 5.30721C21.763 4.33 14.6437 8.47521 14.4732 8.5789C12.3714 9.85713 10.3974 11.2564 8.50891 12.835C6.36308 14.6287 3.62008 16.8553 2.29849 19.4073C0.475624 22.9273 7.5305 22.515 9.17483 22.679C14.1167 23.172 20.0421 24.0378 21.4654 29.7001C22.6331 34.3454 19.274 38.0444 16.0946 40.9194C15.0934 41.8248 10.7936 45.7941 9.01559 44.5241C7.9355 43.7526 9.847 40.9341 10.1592 40.2245M30.4841 10.2582V7.92743C30.4841 7.54216 30.4912 6.9523 30.3249 7.91296C29.8311 10.766 29.7089 13.6978 29.6011 16.5844C29.3167 24.1994 29.2064 31.8508 29.1812 39.4717C29.1753 41.2722 28.9632 43.2723 29.2971 45.0597C29.5078 46.1875 29.6293 45.5091 29.963 45.1755M24.4907 23.8084C29.1916 21.5885 34.0958 20.0423 38.5619 17.2939M36.7378 33.1894C36.2681 34.2631 37.8691 32.6616 38.1565 32.4221C39.9897 30.8945 44.6713 26.9559 43.3681 24.1126C42.8375 22.955 41.4266 23.9682 40.8492 24.5324C38.0021 27.3148 35.91 32.0498 35.4639 35.9689C34.7 42.6803 43.5687 39.0999 46.9003 37.6192M56.5419 7.91326C56.5419 6.47336 56.3248 5.44858 55.601 4.13489C55.0967 3.21975 53.8747 1.18141 52.5754 2.35428C51.8032 3.05131 51.1776 4.64246 50.9251 5.51016C49.887 9.07668 49.6923 12.9274 49.8248 16.6136C50.0352 22.4666 51.3346 28.1681 52.7491 33.8262C53.676 37.5336 55.5801 41.935 55.2391 45.8417C55.1453 46.9152 54.6497 47.9208 54.4863 48.9831C54.365 49.7711 54.4573 47.6435 54.4573 47.521M46.9002 28.7592C45.1195 29.3291 47.0505 28.7454 47.7399 28.5131C50.9749 27.4231 54.2638 26.3803 57.3233 24.8506M64 23C63 23 62 24 62 24C59.3074 26.3314 58.9102 30.7358 59.0898 34.1157C59.2562 37.2478 61.4212 40.8113 64.3303 37.3295C65.6109 35.7968 65.8528 33.7968 65.659 31.7845M65.659 31.7845C65.2182 29.9895 64.7459 28.2009 64.3303 26.3998M65.659 31.7845C65.6697 31.8281 65.6804 31.8717 65.6911 31.9153C66.2453 34.1804 66.5355 38.1758 68.181 39.9932C70.2973 42.3305 71.9483 37.0045 72.4371 36.0556M71.916 22.7662C72.1105 22.1585 72.0189 21.4213 72.2345 20.8553C72.409 20.3971 72.4619 21.8138 72.4951 22.3029C72.723 25.6589 73.1037 28.9989 73.1899 32.3641C73.2535 34.844 73.1667 37.3295 73.3637 39.805C73.3723 39.9134 73.7331 41.9286 73.7401 41.9041C74.2381 40.1611 73.9331 38.3159 74.5797 36.5768C76.3426 31.8352 77.5661 26.8929 79.4148 22.1871C79.8256 21.1416 80.5249 18.9926 81.76 18.5101C83.2542 17.9264 83.4177 22.3401 83.4538 22.853C83.8211 28.0768 82.6084 33.1526 81.9772 38.2995C81.7151 40.4364 81.1397 43.9986 83.9026 41.7883M88.5928 25.8931C88.6168 24.9077 88.8187 24.492 89.2587 23.6637C89.4571 23.2903 88.9046 26.6446 88.8968 27.1525C88.8348 31.1798 88.9682 35.4905 90.0259 39.3997C90.1895 40.004 90.449 41.1256 90.938 41.6146C91.6185 42.2951 91.7373 39.8532 91.9803 38.9219M94.4409 29.9473C94.0658 30.8045 94.9584 31.2121 95.4253 31.0473C97.9452 30.158 103.863 27.4473 101.824 24.9093C95.4257 16.9473 90.7354 34.9672 94.4409 39.1831C97.6852 42.8745 104.144 42.5871 108.324 41.0796C111.58 39.9052 113.842 37.6461 116.214 35.2745M88.0717 16.5123C87.3447 17.6483 87.6579 17.4834 87.7966 16.5123C88.0695 14.6024 88.846 13.5944 90.1563 12.0825" stroke-width="3" stroke-linecap="round"/>
</g>
<defs>
<clipPath id="clip0_728_74">
<rect width="925" height="400"/>
</clipPath>
</defs>
</svg>
